<?xml version="1.0" encoding="UTF-8" standalone="no"?>
<svg version="1.1" width="24" height="24" viewBox="0 0 24 24" id="svg4" sodipodi:docname="share.svg" inkscape:version="1.1.2 (0a00cf5339, 2022-02-04)" xmlns:inkscape="http://www.inkscape.org/namespaces/inkscape" xmlns:sodipodi="http://sodipodi.sourceforge.net/DTD/sodipodi-0.dtd" xmlns="http://www.w3.org/2000/svg" xmlns:svg="http://www.w3.org/2000/svg">
   <defs id="defs8" />
   <sodipodi:namedview id="namedview6" pagecolor="#ffffff" bordercolor="#666666" borderopacity="1.0" inkscape:pageshadow="2" inkscape:pageopacity="0.0" inkscape:pagecheckerboard="0" showgrid="false" inkscape:snap-object-midpoints="true" inkscape:zoom="17.270833" inkscape:cx="5.5006032" inkscape:cy="15.401689" inkscape:window-width="1920" inkscape:window-height="1015" inkscape:window-x="0" inkscape:window-y="0" inkscape:window-maximized="1" inkscape:current-layer="svg4" inkscape:snap-global="false" />
   <path id="path871-3" style="fill-opacity:1;stroke:none;stroke-width:3.33333;stroke-linejoin:round;stroke-opacity:1" d="m 4.9134082,8.0574553 a 3.9999999,4 0 0 1 4,3.9999997 3.9999999,4 0 0 1 -4,4 3.9999999,4 0 0 1 -4.00000001,-4 3.9999999,4 0 0 1 4.00000001,-3.9999997 z" />
   <path id="path871-3-3" style="fill-opacity:1;stroke:none;stroke-width:3.33333;stroke-linejoin:round;stroke-opacity:1" d="m 18.803957,15.957349 a 3.9999999,4 0 0 1 4,4 3.9999999,4 0 0 1 -4,4 3.9999999,4 0 0 1 -4,-4 3.9999999,4 0 0 1 4,-4 z" />
   <path id="path871-3-6" style="fill-opacity:1;stroke:none;stroke-width:3.33333;stroke-linejoin:round;stroke-opacity:1" d="m 18.803957,0.09827347 a 3.9999999,4 0 0 1 4,4.00000003 3.9999999,4 0 0 1 -4,4 3.9999999,4 0 0 1 -4,-4 3.9999999,4 0 0 1 4,-4.00000003 z" />
   <path style="fill-opacity:1" d="m 17.996094,3.5683594 -14.980469,8.5410156 15.044922,8.335937 0.970703,-1.75 L 7.0957031,12.083984 18.988281,5.3066406 Z" id="path1265" />
</svg>